<?xml version="1.0" standalone="no"?>
<!DOCTYPE svg PUBLIC "-//W3C//DTD SVG 20010904//EN"
 "http://www.w3.org/TR/2001/REC-SVG-20010904/DTD/svg10.dtd">
<svg version="1.0" xmlns="http://www.w3.org/2000/svg"
 width="778.000000pt" height="705.000000pt" viewBox="0 0 778.000000 705.000000"
 preserveAspectRatio="xMidYMid meet">

<g transform="translate(0.000000,705.000000) scale(0.100000,-0.100000)"
fill="#000000" stroke="none">
<path d="M3850 6669 c-515 -28 -1019 -184 -1465 -452 -300 -180 -627 -466
-839 -732 -107 -134 -245 -341 -306 -458 -25 -48 -48 -87 -51 -87 -12 0 -126
235 -150 308 -12 39 -26 72 -29 72 -12 0 -51 -143 -66 -245 -26 -168 -2 -351
65 -500 35 -77 28 -101 -18 -67 -17 12 -31 20 -31 18 0 -3 5 -27 10 -53 10
-44 7 -62 -25 -173 -41 -146 -76 -321 -102 -510 -25 -187 -25 -659 0 -840 79
-565 245 -1018 533 -1453 510 -768 1326 -1287 2224 -1412 636 -88 1267 17
1851 310 701 351 1258 958 1548 1687 170 429 243 811 244 1278 0 389 -46 694
-160 1063 l-37 119 55 49 c63 56 61 60 -40 83 -35 8 -67 18 -71 23 -4 4 -24
46 -45 93 -85 197 -273 505 -422 690 -94 117 -297 325 -424 434 -454 390
-1030 648 -1629 731 -100 14 -428 37 -470 33 -8 0 -76 -4 -150 -9z m200 -204
c11 -32 15 -35 51 -35 47 0 49 -11 8 -40 -19 -14 -28 -28 -25 -37 4 -8 9 -27
13 -41 l6 -26 -37 22 -38 22 -29 -21 c-37 -26 -42 -22 -27 21 11 32 10 35 -22
61 -36 30 -36 31 35 41 12 2 23 15 29 36 12 41 22 41 36 -3z m613 -120 l32
-13 -27 -11 c-25 -9 -27 -14 -21 -43 l6 -33 -26 23 c-20 19 -29 22 -45 13 -30
-16 -33 -14 -21 15 7 21 6 31 -6 44 -22 24 -19 30 13 24 23 -5 30 -1 42 23
l14 28 4 -28 c2 -21 12 -32 35 -42z m-1157 21 l29 7 -20 -22 c-16 -19 -17 -27
-8 -52 12 -32 11 -34 -19 -18 -16 9 -24 7 -44 -12 l-24 -22 0 31 c0 24 -6 35
-26 45 l-27 14 32 6 c21 5 31 12 31 25 0 30 13 35 30 12 13 -17 22 -20 46 -14z
m-586 -146 c9 -16 15 -18 36 -10 35 14 35 13 22 -16 -9 -20 -9 -30 0 -45 17
-27 15 -29 -17 -23 -23 5 -32 2 -40 -15 -15 -27 -31 -27 -28 1 1 16 -6 26 -28
37 l-29 14 24 11 c32 13 39 24 33 47 -7 25 13 24 27 -1z m2282 -44 l30 -13
-31 -11 c-24 -8 -31 -17 -31 -36 0 -32 -11 -33 -28 -5 -11 17 -20 20 -44 15
l-30 -6 16 25 c12 19 14 30 6 44 -15 28 -13 32 14 21 19 -7 28 -4 43 12 l18
20 3 -27 c3 -19 12 -30 34 -39z m-834 -139 c95 -12 173 -25 172 -29 0 -5 0
-27 0 -50 0 -72 -1 -72 -141 -54 -67 9 -123 15 -124 13 -1 -1 -5 -25 -8 -53
l-6 -51 107 -14 107 -14 -3 -60 c-2 -33 -5 -62 -7 -64 -2 -2 -49 2 -105 9 -56
7 -103 10 -106 8 -2 -3 -7 -28 -11 -55 l-5 -50 33 -6 c19 -3 78 -11 133 -18
l99 -12 -6 -65 c-4 -36 -8 -66 -9 -67 -2 -2 -96 9 -210 23 l-208 25 0 26 c0
31 49 527 56 559 6 28 14 28 242 -1z m-498 -17 c52 -26 73 -71 93 -190 38
-226 35 -270 -20 -331 -43 -47 -88 -62 -258 -84 -158 -20 -155 -20 -155 11 0
14 -16 139 -35 277 -20 139 -37 263 -38 277 -2 24 0 25 113 41 168 24 252 24
300 -1z m-1429 -46 c17 -15 20 -15 44 0 26 17 29 14 15 -19 -5 -14 -2 -26 13
-42 l20 -23 -31 0 c-25 0 -33 -5 -38 -25 -7 -29 -24 -34 -24 -7 0 24 -19 42
-44 42 -20 0 -20 1 3 19 18 14 23 25 19 45 -6 30 -1 32 23 10z m3166 -14 c6 0
16 7 23 15 19 23 31 18 20 -10 -8 -20 -5 -27 17 -45 l26 -20 -27 0 c-20 0 -29
-8 -40 -32 l-14 -33 -11 28 c-8 20 -17 27 -37 27 -26 0 -26 1 -10 19 14 15 16
28 11 53 -7 32 -7 33 12 16 11 -10 24 -18 30 -18z m-435 -157 c122 -58 174
-128 153 -210 -13 -54 -137 -309 -163 -336 -65 -69 -132 -73 -254 -15 -128 61
-177 122 -165 207 5 39 121 290 158 342 50 71 137 75 271 12z m-2218 -238 c53
-110 97 -204 99 -209 1 -4 53 17 114 48 l112 56 25 -56 c14 -31 26 -60 26 -64
0 -8 -345 -180 -361 -180 -5 0 -9 4 -9 10 0 5 -56 127 -125 270 -69 144 -125
264 -125 266 0 9 136 72 142 66 4 -4 50 -97 102 -207z m-870 79 c-5 -21 -2
-31 17 -45 l24 -19 -27 0 c-21 0 -29 -6 -34 -25 -7 -30 -20 -32 -29 -5 -5 14
-15 20 -38 20 l-32 0 23 18 c20 15 22 22 13 45 -12 30 -9 32 19 15 16 -10 23
-10 37 5 25 24 34 21 27 -9z m3956 4 c28 17 31 15 24 -13 -4 -18 -1 -32 11
-45 18 -19 17 -20 -9 -20 -19 0 -30 -7 -38 -25 l-12 -26 -12 31 c-10 23 -20
30 -41 30 l-28 1 27 15 c24 12 27 19 21 47 l-6 32 22 -20 c18 -16 25 -17 41
-7z m-345 -180 c119 -99 145 -135 145 -195 0 -52 -17 -89 -67 -144 -46 -50
-81 -69 -132 -69 l-39 0 -30 -122 c-16 -67 -33 -123 -38 -125 -5 -1 -36 22
-69 51 l-60 54 29 111 c27 107 28 113 11 131 -10 11 -21 20 -24 20 -3 0 -35
-36 -70 -80 -35 -45 -66 -80 -70 -78 -24 11 -110 85 -110 96 -1 7 83 116 186
242 l187 229 26 -19 c14 -10 70 -56 125 -102z m-3099 53 c32 -19 176 -192 226
-270 62 -98 49 -160 -53 -255 -79 -73 -138 -106 -192 -106 -66 0 -102 27 -206
155 -123 151 -130 162 -137 217 -8 61 14 105 85 169 116 104 206 134 277 90z
m1476 -293 c40 -107 37 -105 173 -107 l80 -2 -30 -26 c-16 -14 -54 -47 -82
-72 l-52 -46 24 -95 c13 -52 22 -96 20 -98 -1 -2 -39 19 -84 47 -44 28 -85 51
-91 51 -5 0 -42 -21 -81 -46 -40 -25 -77 -48 -84 -50 -8 -4 -4 24 11 83 13 48
24 93 24 99 0 7 -33 40 -74 75 -41 35 -75 67 -75 72 -1 4 29 7 67 7 37 0 83 3
103 6 35 6 37 8 70 100 19 52 37 94 40 94 4 0 22 -42 41 -92z m-152 72 c0 -30
-25 -60 -54 -64 -316 -43 -562 -125 -791 -266 -233 -142 -444 -354 -590 -591
-31 -52 -59 -95 -60 -97 -2 -2 -17 4 -35 13 l-31 16 30 52 c16 29 57 90 90
137 317 449 798 737 1334 799 103 12 107 12 107 1z m369 -5 c420 -60 799 -250
1095 -550 82 -83 244 -292 278 -358 l19 -38 -38 7 c-21 4 -41 8 -44 10 -4 2
-38 48 -75 101 -135 191 -361 401 -560 519 -205 121 -486 219 -690 239 -38 4
-77 9 -87 12 -15 4 -47 50 -47 68 0 8 37 6 149 -10z m-2527 -61 c21 -6 21 -7
-5 -21 -19 -10 -27 -22 -27 -41 l0 -26 -16 22 c-8 12 -26 22 -39 22 -22 0 -24
2 -14 24 8 17 8 29 0 45 -13 23 -9 26 18 11 14 -7 23 -4 37 12 l19 20 3 -30
c2 -21 10 -33 24 -38z m4627 39 c29 6 30 6 19 -19 -9 -19 -9 -30 0 -45 16 -26
16 -26 -17 -21 -21 3 -33 -2 -45 -19 l-16 -23 0 31 c0 25 -5 33 -27 41 l-28 9
28 13 c19 9 27 21 27 39 1 25 1 25 15 7 11 -14 22 -17 44 -13z m-4253 -192
c23 -10 44 -23 48 -29 7 -11 -69 -132 -83 -132 -5 0 -13 5 -16 10 -3 6 -18 10
-32 10 -46 0 -107 -88 -86 -125 12 -21 234 -185 250 -185 25 0 51 19 72 54 28
45 26 70 -6 96 l-27 21 -27 -32 -27 -33 -45 34 -45 35 36 50 c78 110 97 134
106 135 18 0 183 -131 194 -155 24 -51 15 -116 -24 -180 -54 -91 -103 -146
-148 -166 -83 -38 -128 -22 -299 105 -135 101 -159 129 -165 201 -5 58 16 108
76 185 89 114 158 142 248 101z m3907 8 c50 -13 95 -55 152 -138 77 -112 79
-186 7 -262 -58 -61 -252 -196 -300 -210 -85 -24 -162 23 -241 145 -62 95 -67
174 -15 236 46 54 265 216 312 230 37 11 42 11 85 -1z m-4973 -136 c51 -99
142 -217 239 -312 89 -86 245 -197 317 -226 28 -11 46 -26 57 -49 20 -44 70
-100 130 -148 53 -42 83 -51 49 -15 -42 45 -132 253 -132 305 0 9 23 -7 53
-36 98 -97 207 -154 426 -222 216 -68 312 -119 399 -214 46 -50 112 -176 112
-214 0 -12 -12 -80 -27 -150 -33 -158 -37 -390 -10 -537 29 -161 103 -344 196
-485 20 -30 39 -60 44 -67 12 -19 -327 74 -394 108 -102 52 -182 221 -209 443
-16 129 -6 129 62 1 26 -48 53 -85 68 -92 14 -7 21 -13 15 -13 -5 -1 0 -5 12
-10 25 -10 38 -48 29 -85 -5 -19 -13 -25 -33 -25 l-27 0 34 -35 c36 -37 94
-68 149 -80 l35 -7 -42 47 c-35 40 -40 50 -31 71 21 58 11 106 -50 227 -67
133 -78 179 -90 386 -7 110 -13 148 -34 198 -60 147 -133 219 -318 311 -76 38
-134 63 -127 55 6 -8 52 -45 102 -82 80 -60 186 -160 186 -175 0 -3 -24 9 -52
28 -89 56 -175 96 -373 171 -208 79 -285 115 -386 180 -82 53 -195 158 -255
238 -60 80 -129 225 -148 312 -19 87 -32 265 -20 265 5 0 25 -30 44 -67z
m5505 -28 c0 -22 -31 -33 -47 -17 -17 17 -1 44 24 40 15 -2 23 -10 23 -23z
m-2001 -7 c15 -24 -13 -53 -43 -43 -23 7 -28 34 -9 53 16 16 38 12 52 -10z
m-1043 -38 c-27 -24 -41 -25 -41 -6 0 9 7 12 19 9 10 -3 22 0 25 6 4 6 10 11
14 11 4 -1 -4 -10 -17 -20z m1363 -35 c10 -22 24 -37 40 -41 34 -8 33 -17 -4
-31 -20 -7 -34 -22 -41 -43 l-11 -31 -17 33 c-9 18 -26 37 -38 43 -29 13 -29
19 3 33 14 7 30 26 36 42 5 17 12 30 14 30 2 0 10 -16 18 -35z m-1575 -21 c-9
-8 -36 -18 -60 -20 l-44 -5 24 20 c14 13 37 21 59 21 33 0 35 -1 21 -16z
m3505 -155 c14 -34 19 -37 68 -44 29 -3 66 -9 81 -12 l29 -5 -56 -50 c-62 -55
-65 -64 -42 -160 8 -32 12 -58 9 -58 -2 0 -35 18 -73 41 l-68 40 -67 -41 c-37
-23 -69 -39 -71 -37 -3 2 3 37 11 77 l16 74 -57 57 -56 56 34 6 c18 3 54 9 80
12 l46 7 33 76 33 75 18 -39 c9 -21 24 -55 32 -75z m-3544 57 c0 -2 -29 -23
-65 -46 -69 -45 -95 -73 -95 -102 0 -29 27 -21 121 33 126 73 298 121 422 118
38 0 25 -7 -68 -34 -303 -87 -622 -360 -774 -664 l-42 -83 -22 43 c-21 43
-144 174 -202 216 l-30 21 30 58 c34 68 97 139 166 189 27 19 49 33 49 31 0
-2 -9 -23 -20 -47 -42 -93 -16 -158 50 -124 36 19 64 60 86 130 34 105 95 174
190 216 60 27 204 59 204 45z m1888 -48 c19 -19 14 -56 -9 -68 -11 -7 -23 -9
-26 -7 -2 3 5 8 16 12 29 9 28 49 -1 63 -15 7 -18 11 -7 11 8 1 20 -4 27 -11z
m-503 -43 c107 -31 271 -97 515 -205 218 -97 320 -133 452 -160 109 -23 280
-26 405 -9 132 18 303 83 423 161 l45 29 -48 -44 c-92 -85 -259 -169 -408
-205 l-71 -18 72 -28 c72 -28 73 -28 119 -11 25 10 74 33 109 51 71 38 72 39
72 21 0 -12 -75 -60 -157 -101 l-32 -16 36 -49 36 -49 76 46 c42 24 91 54 109
64 17 11 32 15 32 9 0 -13 -83 -79 -154 -123 l-54 -33 -4 -70 c-3 -38 -3 -72
-2 -74 2 -2 26 11 54 28 28 17 55 31 60 31 33 0 -22 -51 -101 -94 -25 -13 -47
-41 -81 -104 -27 -47 -47 -86 -45 -87 1 -2 71 49 156 112 230 171 346 298 433
473 43 87 48 86 14 -3 -37 -98 -73 -166 -132 -244 -76 -102 -144 -168 -339
-330 -187 -155 -283 -257 -381 -404 -63 -95 -173 -314 -210 -417 -18 -53 -35
-69 -91 -86 -21 -7 -19 0 23 100 37 88 118 371 109 382 -1 2 -46 -52 -98 -120
-81 -103 -98 -132 -108 -178 -10 -51 -58 -223 -62 -226 -1 -1 -12 -4 -23 -8
-21 -6 -21 -3 12 110 19 64 32 119 30 121 -2 3 -43 -25 -89 -61 -89 -67 -127
-91 -127 -80 0 22 50 79 103 118 34 24 78 61 98 83 35 36 38 45 62 183 15 80
29 167 33 195 l7 50 -34 -26 c-19 -14 -51 -38 -72 -53 -42 -32 -53 -30 -43 8
4 16 28 40 64 64 98 67 96 63 89 209 -4 71 -10 141 -13 157 l-7 29 -85 -7
c-65 -6 -87 -4 -93 6 -19 29 -8 35 72 41 45 4 84 9 87 11 6 7 -62 149 -99 207
-27 43 -34 47 -118 72 -68 20 -92 33 -105 53 -10 14 -16 27 -14 30 2 2 26 -5
54 -15 27 -10 64 -22 83 -26 33 -7 34 -7 18 16 -9 12 -48 58 -88 101 -65 72
-81 84 -188 135 -64 31 -156 85 -206 120 -49 36 -134 87 -190 114 -55 27 -95
49 -89 49 7 0 51 -11 99 -25z m442 3 c-3 -8 -6 -5 -6 6 -1 11 2 17 5 13 3 -3
4 -12 1 -19z m-912 3 c22 -5 33 -9 25 -10 -13 -1 -13 -3 -1 -10 8 -5 -39 -9
-120 -8 -74 0 -170 -6 -214 -13 -70 -12 -84 -18 -112 -47 -18 -19 -33 -38 -33
-41 0 -4 30 -16 66 -26 70 -20 230 -93 222 -101 -2 -3 -40 8 -84 24 -43 16
-123 39 -176 51 -66 15 -95 26 -91 34 4 6 29 39 55 73 45 57 53 62 101 71 65
12 308 14 362 3z m-526 -38 c0 -5 -22 -35 -48 -68 -38 -48 -65 -70 -137 -108
-111 -60 -178 -110 -274 -203 -65 -63 -86 -77 -150 -98 -41 -14 -75 -24 -77
-22 -8 8 103 139 178 211 121 116 266 206 434 271 66 25 75 27 74 17z m841
-34 c84 -32 216 -108 296 -170 65 -50 232 -224 256 -266 l18 -30 -81 27 c-64
21 -89 36 -123 71 -91 96 -221 191 -342 252 -30 15 -61 41 -77 64 -14 21 -36
51 -48 67 l-22 28 24 -7 c13 -4 58 -20 99 -36z m1864 -5 c19 -19 20 -25 3 -48
-19 -26 -61 -18 -65 12 -7 44 32 67 62 36z m-1039 -44 c0 -16 -6 -26 -18 -28
-19 -4 -32 20 -23 44 9 25 41 13 41 -16z m855 -84 c0 -20 -27 -39 -45 -32 -18
7 -20 52 -2 59 17 6 47 -11 47 -27z m-2480 -32 c96 -18 270 -77 282 -96 4 -7
8 -86 8 -174 l0 -162 -142 -95 c-79 -52 -190 -132 -247 -176 -57 -45 -106 -81
-110 -81 -3 0 -78 24 -166 53 l-160 52 -8 60 c-4 33 -3 119 3 190 l10 130 72
70 c40 39 98 89 128 112 57 43 216 133 236 133 7 0 49 -7 94 -16z m785 -4 c83
-36 214 -128 302 -213 l85 -83 9 -79 c10 -97 11 -231 3 -273 -6 -28 -13 -33
-63 -48 -31 -8 -105 -31 -164 -51 l-108 -34 -67 54 c-90 72 -230 173 -336 241
l-86 56 2 172 3 172 75 29 c64 25 250 74 287 76 6 1 33 -8 58 -19z m1473 -43
c4 -20 -25 -34 -40 -19 -15 15 -1 44 19 40 10 -2 19 -11 21 -21z m520 -73 c0
-13 -7 -25 -14 -25 -8 -1 -20 -2 -26 -3 -7 -1 -13 8 -14 19 -1 28 1 30 29 31
20 1 25 -3 25 -22z m-5219 -111 c111 -74 230 -125 496 -213 265 -87 337 -123
433 -214 58 -55 142 -168 142 -191 0 -2 -33 13 -72 35 -95 50 -165 72 -383
116 -318 64 -442 120 -581 258 -77 78 -97 105 -136 186 -26 52 -50 106 -54
120 -6 23 -5 23 32 -9 22 -17 77 -57 123 -88z m5330 -11 c13 -26 -5 -60 -35
-68 -38 -10 -59 7 -59 47 0 57 67 73 94 21z m315 -71 c28 -31 -2 -69 -45 -56
-13 4 -19 16 -19 35 0 41 35 53 64 21z m-3808 -68 c-3 -21 -6 -94 -7 -163 0
-159 -19 -131 -26 41 l-6 117 -49 -21 c-47 -19 -52 -25 -94 -108 -49 -99 -89
-226 -100 -318 -3 -33 -10 -58 -15 -55 -4 2 -5 12 -2 21 4 11 3 14 -5 9 -33
-20 7 194 58 318 49 118 66 137 145 168 98 38 109 37 101 -9z m1972 -3 c62
-29 64 -31 102 -112 21 -46 48 -117 59 -158 21 -76 27 -123 11 -85 -11 25 -12
8 -3 -36 7 -33 7 -33 13 -9 6 21 8 18 15 -22 5 -35 3 -52 -8 -68 -14 -20 -15
-18 -22 37 -11 90 -52 219 -100 319 -40 83 -48 93 -85 108 -65 26 -65 26 -68
-77 -5 -145 -20 -185 -21 -56 -1 58 -4 128 -8 154 l-6 48 29 -7 c16 -4 57 -20
92 -36z m1410 -43 c4 -21 -25 -34 -40 -19 -8 8 -8 16 2 27 16 19 34 15 38 -8z
m292 -45 c14 -11 23 -29 23 -47 0 -18 -9 -36 -23 -47 -27 -22 -39 -22 -68 -2
-31 22 -29 67 4 93 32 26 36 26 64 3z m-2755 -41 c-6 -4 -98 -73 -205 -153
-107 -79 -203 -152 -212 -162 -13 -13 -18 -35 -19 -79 l-1 -62 -14 50 c-24 89
-27 84 129 202 143 108 301 213 321 213 6 0 6 -3 1 -9z m-2865 -73 c0 -5 11
-6 25 -2 28 7 33 -7 11 -26 -11 -8 -12 -18 -5 -36 13 -36 12 -38 -15 -21 -21
14 -26 14 -45 1 -20 -14 -21 -14 -21 16 0 18 -6 33 -15 36 -22 9 -18 22 8 26
15 2 23 11 25 28 4 24 5 24 18 5 8 -10 14 -23 14 -27z m5807 -8 c29 0 29 -11
2 -28 -16 -10 -19 -20 -15 -38 7 -25 6 -25 -19 -8 -21 14 -28 14 -42 3 -15
-13 -16 -11 -11 14 3 15 1 30 -3 33 -16 10 -9 24 11 24 13 0 22 9 27 28 l7 27
10 -27 c7 -20 17 -28 33 -28z m-2783 -101 c47 -17 116 -59 116 -69 -1 -3 -23
-30 -49 -60 -47 -52 -50 -54 -68 -38 -30 27 -89 48 -135 48 -89 0 -167 -71
-176 -159 -7 -72 5 -117 40 -157 43 -49 78 -64 145 -64 83 0 107 15 111 68 l3
42 -65 0 -66 0 0 65 0 65 140 0 141 0 -3 -147 -3 -146 -48 -33 c-66 -46 -116
-59 -222 -59 -82 0 -97 3 -157 33 -90 44 -142 104 -170 195 -35 118 -10 239
69 327 97 108 252 143 397 89z m2442 -6 c10 -15 10 -21 -3 -35 -14 -15 -16
-15 -31 0 -15 15 -15 19 -2 34 19 21 20 21 36 1z m-4956 -62 c47 -11 146 -28
220 -36 234 -27 318 -56 407 -138 40 -37 123 -146 123 -162 0 -3 -21 8 -46 26
-74 51 -168 77 -355 99 -194 23 -265 43 -366 106 -65 41 -141 112 -164 156 -8
14 -1 13 43 -6 29 -13 91 -33 138 -45z m1677 -49 l137 -47 42 -154 c38 -138
67 -227 121 -372 l17 -46 -84 -117 c-46 -64 -96 -131 -110 -148 l-26 -31 -74
22 c-94 29 -246 94 -272 118 -30 26 -93 165 -122 269 -34 120 -46 215 -31 257
12 36 82 147 154 244 55 76 43 75 248 5z m1626 -14 c105 -146 157 -240 157
-288 0 -141 -115 -449 -183 -490 -45 -28 -276 -112 -311 -114 -29 -1 -38 10
-222 270 -13 20 -12 28 14 95 48 123 90 258 142 456 l11 43 127 39 c126 40
190 58 204 60 5 1 32 -32 61 -71z m1465 -40 c31 -31 -3 -87 -42 -72 -26 10
-32 55 -11 71 23 16 37 17 53 1z m-5313 -100 c12 -30 17 -32 52 -29 l38 3 -28
-30 c-24 -25 -26 -32 -17 -56 14 -37 14 -37 -19 -18 -29 16 -31 16 -60 -6 -17
-12 -31 -21 -31 -20 0 2 4 18 9 36 9 29 7 34 -15 48 -28 19 -23 34 11 34 20 0
25 7 31 35 3 19 8 35 11 35 2 0 10 -15 18 -32z m5849 -20 c4 -12 16 -18 36
-18 37 0 39 -12 4 -30 -22 -12 -25 -19 -19 -47 7 -37 0 -41 -27 -16 -17 15
-21 15 -53 0 l-35 -17 14 34 c13 32 13 35 -12 60 l-27 26 38 0 c34 0 39 4 49
32 12 34 14 32 32 -24z m-4151 -61 c39 -55 46 -72 56 -147 15 -99 57 -237 106
-345 31 -67 35 -86 35 -158 l0 -82 -36 50 c-84 118 -169 320 -198 472 -20 108
-32 288 -18 279 6 -3 30 -34 55 -69z m2463 -157 c-18 -115 -56 -249 -95 -334
-30 -67 -128 -226 -139 -226 -4 0 -7 35 -7 78 0 69 5 86 42 167 48 104 86 228
102 335 10 63 19 86 59 144 l47 69 3 -69 c2 -38 -4 -112 -12 -164z m942 186
c39 -45 56 -98 48 -152 -5 -43 -40 -124 -52 -124 -4 0 -23 19 -44 43 -21 23
-61 56 -89 72 -28 17 -51 35 -51 40 0 13 135 155 148 155 5 0 23 -15 40 -34z
m355 20 c6 -15 -11 -36 -29 -36 -14 0 -23 20 -16 38 6 16 39 15 45 -2z m-4578
-72 c120 -15 145 -20 134 -26 -2 -2 -44 -23 -92 -47 -54 -26 -112 -65 -148
-99 -33 -30 -61 -53 -63 -51 -36 41 -55 155 -36 214 11 35 14 37 44 31 17 -4
90 -14 161 -22z m-256 -242 c116 -228 497 -439 1041 -578 181 -46 550 -114
620 -114 22 0 40 -4 40 -10 0 -5 -6 -10 -12 -10 -7 0 -107 -31 -223 -70 -240
-79 -247 -84 -243 -168 2 -28 1 -52 0 -52 -13 0 -190 48 -302 82 -403 121
-744 320 -873 510 -35 52 -36 55 -52 223 -8 94 -18 182 -20 198 -6 37 1 34 24
-11z m4572 -169 c-10 -104 -22 -196 -26 -204 -32 -54 -112 -142 -180 -196
-201 -162 -475 -287 -864 -393 -79 -22 -148 -40 -152 -40 -5 0 -5 22 -2 49 9
81 -11 94 -272 181 l-220 74 105 12 c419 48 935 193 1200 337 186 100 350 239
400 338 12 22 23 39 25 37 3 -2 -4 -90 -14 -195z m-5140 74 c33 13 33 13 17
-21 -9 -22 -8 -29 8 -47 19 -22 19 -22 -9 -17 -21 4 -32 0 -40 -13 -15 -25
-27 -24 -27 1 0 11 -12 25 -27 33 l-27 14 23 8 c19 6 22 13 19 36 -4 28 -4 28
14 12 16 -14 24 -15 49 -6z m5792 -43 c21 -7 21 -7 -5 -16 -20 -7 -28 -16 -28
-34 0 -30 -16 -32 -25 -3 -5 16 -13 20 -35 17 -27 -4 -27 -3 -13 18 11 17 12
28 4 43 -16 29 -14 32 14 19 21 -10 29 -9 43 6 16 16 17 15 20 -13 2 -20 10
-32 25 -37z m-2624 -40 c17 -18 194 -269 198 -282 3 -7 -11 -37 -31 -67 -33
-51 -38 -54 -62 -45 -29 11 -805 12 -844 1 -28 -8 -43 7 -78 75 l-20 40 90
125 c50 68 99 133 109 144 17 19 30 20 324 19 168 0 310 -5 314 -10z m98 -472
c9 -6 13 -146 13 -594 1 -323 -1 -592 -5 -598 -4 -7 -146 -10 -425 -10 -372 0
-419 2 -424 16 -3 9 -6 275 -6 593 0 435 3 580 12 589 14 14 814 18 835 4z
m-929 -273 c-10 -7 -10 -9 0 -9 7 0 12 -14 12 -35 0 -38 -14 -47 -23 -15 -3
11 -1 20 5 20 5 0 7 4 3 10 -3 5 -13 6 -23 3 -15 -6 -15 -5 -3 10 13 16 12 17
-14 7 -43 -17 -84 -49 -100 -80 -19 -36 -19 -100 -1 -143 7 -18 11 -47 9 -64
-3 -17 -1 -33 5 -37 5 -3 7 5 4 19 -4 26 12 35 22 13 4 -7 4 -2 0 12 -14 62
-15 116 -2 133 7 10 37 24 66 31 l52 14 0 -210 c-1 -116 -4 -207 -8 -204 -3 4
-7 12 -8 19 -1 7 -7 23 -13 37 l-11 25 5 -27 c4 -24 -6 -38 -85 -115 -56 -55
-90 -95 -89 -108 1 -39 35 -118 52 -121 14 -2 14 2 -4 25 -11 15 -22 42 -25
61 -6 33 -2 39 65 103 39 37 74 67 78 67 3 0 15 -7 25 -17 16 -14 18 -34 18
-184 l0 -169 29 -32 c25 -28 37 -33 97 -39 38 -5 98 -8 134 -9 73 0 140 -9
140 -19 0 -3 -64 -26 -142 -50 -79 -24 -190 -59 -247 -78 -57 -19 -109 -32
-116 -29 -7 2 -38 80 -68 173 -141 428 -317 980 -317 995 0 9 6 20 12 25 7 4
116 42 243 83 l230 76 3 -80 c2 -57 -1 -82 -10 -87z m1257 91 c132 -43 244
-85 249 -93 6 -9 -47 -186 -159 -528 -92 -283 -177 -545 -188 -583 -11 -37
-26 -70 -33 -73 -6 -2 -110 27 -230 66 -121 39 -232 73 -247 77 -57 13 -7 26
144 36 106 6 161 14 177 24 43 28 52 71 52 237 0 140 2 156 19 172 19 16 22
16 70 -25 30 -26 54 -39 62 -34 7 4 10 3 5 -4 -6 -10 10 -27 28 -27 5 0 11 -6
14 -14 3 -8 0 -11 -5 -8 -6 4 -8 -4 -5 -21 l5 -27 10 29 c10 29 6 33 -79 112
-49 45 -93 80 -98 77 -4 -3 -2 -9 5 -14 11 -7 11 -9 1 -9 -7 0 -11 -3 -9 -7 3
-5 -1 -14 -9 -21 -12 -11 -14 0 -14 75 -1 48 -2 217 -3 376 -2 158 -2 287 -2
287 0 0 108 -36 240 -80z m-3167 58 c18 -18 14 -46 -7 -58 -25 -13 -48 -4 -56
21 -12 38 35 65 63 37z m4910 -17 c5 -32 -23 -54 -49 -40 -19 10 -26 49 -12
63 4 4 19 6 33 4 18 -2 26 -10 28 -27z m-138 -131 c0 -13 -7 -20 -20 -20 -11
0 -20 -5 -20 -10 0 -18 28 -22 65 -10 46 15 83 6 97 -25 21 -46 -36 -97 -70
-63 -19 19 -14 28 13 28 16 0 25 6 25 16 0 13 -10 14 -69 8 -63 -6 -69 -5 -84
16 -8 12 -13 30 -10 39 14 40 73 57 73 21z m-4618 -37 c33 -29 17 -83 -24 -83
-22 0 -24 18 -3 26 21 8 19 34 -2 34 -25 -1 -116 -52 -121 -68 -3 -10 5 -13
28 -10 42 4 51 -18 14 -32 -55 -21 -100 44 -56 82 23 21 113 67 131 68 8 0 23
-7 33 -17z m4696 -148 c3 -14 -1 -17 -22 -13 -32 6 -59 -28 -31 -38 17 -7 18
-13 6 -33 -7 -11 -26 1 -85 55 -77 69 -85 81 -65 101 16 16 193 -49 197 -72z
m-4630 33 c21 -21 14 -33 -64 -103 -55 -49 -78 -65 -86 -57 -9 9 -7 17 5 30
16 18 16 20 1 33 -9 7 -24 14 -32 14 -38 0 -18 25 35 44 32 12 72 28 88 35 38
18 39 18 53 4z m4532 -148 c24 32 35 9 14 -32 -9 -18 -18 -35 -20 -37 -5 -5
-174 108 -174 117 0 22 17 17 87 -25 l76 -46 17 23z m-4473 44 c4 -10 -11 -32
-43 -65 -26 -27 -44 -49 -40 -49 5 0 35 12 68 27 50 22 61 24 69 12 5 -8 9
-17 9 -21 0 -3 -36 -32 -81 -63 -62 -44 -84 -54 -93 -45 -8 9 -5 16 13 28 14
10 34 25 45 35 18 15 15 15 -27 -3 -27 -11 -53 -20 -58 -20 -20 0 -7 26 33 67
48 49 40 58 -12 13 -38 -32 -63 -39 -58 -16 3 17 136 115 156 115 7 1 15 -6
19 -15z m4331 -121 l63 -44 18 23 c11 13 23 19 27 15 10 -10 -25 -77 -40 -77
-10 0 -136 87 -160 110 -12 12 3 32 17 24 7 -4 40 -27 75 -51z m-25 -62 c61
-48 84 -81 56 -81 -5 0 -42 26 -82 57 -40 31 -74 58 -76 59 -2 2 -1 11 3 20 4
11 10 13 19 7 6 -5 42 -33 80 -62z m-4206 42 c2 -6 -17 -26 -42 -43 -26 -18
-63 -46 -82 -63 -28 -25 -36 -28 -44 -16 -5 8 -9 16 -9 19 1 9 155 119 164
116 6 -1 11 -7 13 -13z m3834 -72 c-122 -146 -353 -342 -546 -465 -153 -98
-534 -271 -543 -247 -1 4 4 22 11 40 13 30 27 39 144 86 260 106 470 240 711
454 56 50 124 102 150 115 26 14 61 34 77 45 17 12 32 21 33 21 2 0 -15 -22
-37 -49z m-3511 -11 c41 -24 122 -86 180 -138 232 -208 529 -388 767 -466 45
-15 53 -22 63 -52 7 -20 9 -38 6 -41 -10 -10 -169 53 -321 127 -151 74 -313
175 -434 272 -81 65 -351 327 -351 341 0 4 3 6 8 4 4 -2 41 -24 82 -47z m3816
17 c33 -30 35 -34 23 -60 -11 -24 -10 -30 11 -52 17 -18 21 -28 13 -36 -10
-10 -33 6 -162 118 -8 6 52 63 66 63 7 0 29 -15 49 -33z m-4094 6 c21 -19 23
-44 6 -61 -20 -20 -31 -14 -24 13 5 20 3 25 -14 25 -15 0 -20 -7 -20 -29 0
-73 -45 -125 -89 -102 -28 15 -38 58 -18 78 21 21 40 8 27 -18 -9 -15 -7 -21
6 -26 21 -8 34 13 34 56 0 37 32 81 58 81 9 0 24 -7 34 -17z m82 -98 c33 -42
25 -67 -10 -34 -23 22 -24 22 -44 4 -19 -17 -19 -19 -3 -37 13 -14 14 -21 5
-30 -9 -9 -15 -8 -25 6 -11 15 -17 17 -35 7 -26 -14 -28 -28 -5 -53 12 -14 14
-21 5 -30 -6 -6 -13 -10 -14 -7 -2 2 -16 19 -32 37 l-30 32 75 69 c41 39 77
70 80 71 4 0 19 -16 33 -35z m3966 -35 c63 -57 72 -70 57 -76 -13 -5 -30 4
-59 32 -44 41 -42 32 3 -27 38 -48 22 -67 -30 -35 -63 39 -67 39 -21 -3 37
-32 43 -42 32 -53 -9 -8 -15 -9 -20 -2 -4 5 -37 38 -74 71 -58 54 -65 64 -53
79 13 19 22 15 111 -42 26 -17 24 -14 -14 34 -41 52 -49 72 -35 85 14 14 30 4
103 -63z m-2553 28 c-3 -8 -6 -5 -6 6 -1 11 2 17 5 13 3 -3 4 -12 1 -19z
m-1342 -75 c40 -44 44 -57 12 -49 -19 4 -35 -6 -82 -54 -46 -47 -62 -57 -72
-48 -12 9 -2 23 49 75 46 47 59 66 51 74 -10 10 -8 39 3 39 2 0 19 -17 39 -37z
m3770 -86 c39 -27 72 -51 74 -53 2 -2 -2 -10 -9 -19 -10 -12 -16 -13 -26 -4
-21 17 -49 -8 -33 -28 9 -10 9 -17 1 -25 -14 -14 -15 -14 -81 81 -48 70 -50
75 -35 92 19 21 16 22 109 -44z m-3685 -2 c10 -12 3 -28 -35 -89 -51 -82 -69
-101 -85 -91 -7 4 -7 12 1 26 15 29 -5 53 -33 38 -13 -7 -24 -7 -30 -1 -6 6
18 31 69 70 85 65 94 69 113 47z m3542 -27 c-8 -11 2 -28 44 -76 34 -38 54
-68 50 -77 -9 -24 -18 -18 -74 51 -45 54 -56 63 -72 54 -13 -7 -21 -7 -26 2
-10 15 67 81 80 68 6 -6 5 -14 -2 -22z m-3450 -55 c22 -19 23 -46 4 -62 -16
-13 -32 2 -21 19 11 17 -5 32 -21 19 -8 -7 -14 -30 -14 -58 0 -78 -46 -116
-92 -74 -21 19 -23 44 -6 61 19 19 31 14 24 -12 -7 -29 9 -43 30 -26 11 10 13
25 8 60 -5 40 -3 51 15 69 25 25 48 27 73 4z m3373 -16 c21 -16 11 -42 -12
-33 -22 9 -36 -3 -22 -20 6 -8 26 -14 43 -14 41 0 77 -20 87 -48 7 -18 3 -28
-16 -48 -21 -21 -27 -22 -50 -12 -14 6 -25 17 -25 25 0 16 26 18 36 2 4 -7 9
-8 17 0 17 17 -12 41 -50 41 -36 0 -83 36 -83 65 0 16 34 55 48 55 5 0 16 -6
27 -13z m-95 -68 c0 -6 -9 -18 -20 -27 -17 -15 -18 -19 -4 -37 12 -16 18 -18
34 -7 25 16 38 -4 16 -26 -14 -15 -14 -18 6 -39 20 -21 23 -22 39 -7 16 15 39
12 39 -4 0 -14 -71 -55 -79 -46 -12 14 -96 128 -105 143 -6 9 1 21 20 37 31
25 54 31 54 13z m-3180 -89 c15 -28 -22 -65 -50 -50 -22 12 -26 40 -8 58 18
18 46 14 58 -8z m220 -11 c0 -5 -11 -9 -25 -9 -26 0 -34 15 -12 23 16 5 37 -3
37 -14z m2824 2 c3 -4 -3 -16 -14 -26 -26 -24 -9 -60 24 -51 32 8 41 -5 17
-24 -20 -15 -20 -16 -2 -39 16 -20 21 -22 41 -11 36 19 47 -4 13 -28 -16 -12
-35 -22 -41 -24 -6 -2 -36 35 -66 82 l-54 84 31 23 c36 25 43 27 51 14z
m-2871 -24 c16 -11 14 -19 -22 -102 -24 -54 -47 -91 -57 -93 -13 -3 -15 1 -10
21 9 36 -18 56 -43 33 -13 -12 -21 -14 -26 -6 -6 10 119 160 134 160 4 0 15
-6 24 -13z m87 -59 c0 -7 -20 -44 -44 -82 -44 -69 -44 -69 -24 -86 25 -20 16
-46 -10 -30 -58 34 -58 31 -1 124 47 77 79 108 79 74z m2730 -50 c49 -78 51
-102 8 -128 -18 -11 -35 -20 -38 -20 -3 0 -28 39 -56 88 l-52 87 27 17 c48 32
68 24 111 -44z m-2619 -16 c34 -30 34 -55 2 -88 -9 -9 -18 -28 -19 -42 -6 -58
-58 -76 -108 -38 -17 14 -16 19 30 105 27 50 52 91 56 91 4 0 22 -13 39 -28z
m2462 -89 c31 -59 36 -76 27 -93 -14 -26 -55 -36 -76 -19 -19 15 -74 122 -74
143 0 24 31 47 59 44 21 -2 33 -17 64 -75z m-2379 51 c13 -5 9 -19 -25 -86
-27 -53 -37 -84 -31 -90 17 -17 30 -1 66 78 26 56 38 72 50 68 9 -3 16 -7 16
-9 0 -1 -18 -39 -40 -84 -42 -85 -54 -97 -94 -87 -42 10 -41 40 1 132 21 46
39 84 40 84 1 0 8 -3 17 -6z m881 -34 c119 -13 365 -13 500 1 95 9 117 9 173
-6 35 -10 60 -21 55 -26 -4 -4 -62 -16 -128 -26 -168 -25 -545 -25 -703 0
-164 26 -171 30 -92 55 36 11 74 18 85 16 11 -2 61 -8 110 -14z m1380 -71 c43
-88 47 -109 22 -109 -19 1 -99 183 -84 192 7 4 13 8 15 8 1 0 23 -41 47 -91z
m-2136 42 c11 -7 11 -18 2 -60 -17 -78 -14 -80 24 -19 28 44 40 55 55 51 11
-3 20 -8 20 -12 0 -21 -77 -191 -87 -191 -17 0 -16 20 3 65 22 53 13 52 -16 0
-23 -42 -38 -53 -52 -39 -3 3 0 31 7 62 8 31 12 58 11 60 -2 1 -11 -19 -21
-45 -21 -58 -31 -71 -45 -57 -7 7 -3 28 14 65 13 30 31 71 40 92 16 39 22 42
45 28z m2051 -10 c5 -11 10 -27 10 -36 0 -10 11 -30 25 -47 14 -16 25 -35 25
-43 0 -24 -35 -56 -63 -58 -26 -2 -30 3 -58 73 -17 41 -35 80 -40 87 -8 8 -2
16 18 27 39 21 70 20 83 -3z m-94 -111 c37 -95 40 -110 20 -110 -7 0 -23 24
-34 53 -21 51 -21 51 -15 12 15 -94 -1 -110 -41 -40 -15 25 -29 45 -31 45 -3
0 4 -23 14 -50 12 -31 15 -52 9 -56 -16 -10 -24 5 -57 100 -25 70 -29 91 -19
98 21 13 31 5 65 -53 35 -57 41 -49 23 29 -6 24 -8 48 -4 53 15 26 39 -2 70
-81z m-1732 38 c30 -13 40 -38 31 -78 -8 -37 -29 -54 -59 -46 -21 5 -26 1 -36
-29 -11 -34 -40 -49 -40 -22 0 11 32 113 55 175 5 15 17 15 49 0z m1576 -128
c17 -34 28 -65 25 -70 -10 -16 -35 -12 -35 5 0 8 -9 15 -20 15 -15 0 -20 -7
-20 -25 0 -29 -26 -35 -34 -7 -2 9 -7 46 -11 82 -4 36 -9 73 -11 83 -4 11 2
20 18 26 26 9 33 1 88 -109z m-1447 40 c-4 -106 -14 -160 -29 -160 -8 0 -14
10 -14 25 0 18 -5 25 -20 25 -11 0 -23 -7 -26 -15 -7 -18 -34 -20 -34 -3 0 7
19 52 42 101 34 73 45 87 62 85 19 -3 21 -9 19 -58z m103 -29 l8 -56 11 48 c5
26 14 48 18 48 4 -1 11 -1 16 -1 5 0 0 -35 -10 -77 -10 -43 -18 -88 -19 -100
0 -16 -6 -23 -19 -23 -16 0 -20 11 -27 73 l-8 72 -14 -62 c-9 -41 -19 -63 -28
-63 -18 0 -18 9 7 116 18 79 23 91 39 87 14 -4 21 -19 26 -62z m1194 50 c5
-11 10 -24 10 -30 0 -17 -27 -13 -34 4 -3 8 -13 15 -21 15 -18 0 -16 -17 9
-105 14 -47 43 -56 38 -12 -4 36 25 37 34 2 14 -58 -67 -88 -93 -35 -6 14 -17
53 -24 87 -10 50 -10 64 0 77 19 23 68 20 81 -3z m-114 -46 c3 -13 3 -33 -1
-44 -3 -12 -2 -21 3 -21 5 0 14 -19 20 -42 10 -40 9 -45 -14 -51 -4 -1 -12 13
-19 32 -6 19 -17 37 -25 39 -10 4 -12 -5 -7 -42 6 -40 4 -46 -11 -46 -14 0
-21 18 -35 98 -10 53 -17 100 -17 104 0 10 63 15 82 5 10 -4 20 -18 24 -32z
m-964 30 c3 -3 2 -25 -3 -48 -4 -23 -13 -68 -19 -99 -8 -41 -16 -58 -27 -58
-17 0 -16 3 8 148 10 56 23 74 41 57z m84 -78 c8 -67 9 -66 19 6 4 31 11 47
21 47 8 0 14 -3 14 -7 -1 -25 -30 -196 -34 -201 -15 -14 -35 26 -42 86 l-8 67
-10 -70 c-6 -38 -15 -69 -19 -67 -4 1 -11 2 -15 2 -8 0 12 167 23 197 2 6 13
9 24 6 15 -4 21 -17 27 -66z m752 56 c-2 -11 -14 -19 -31 -21 -21 -3 -27 -8
-23 -19 3 -8 6 -20 6 -27 0 -9 9 -12 25 -8 18 3 25 0 25 -12 0 -9 -8 -16 -20
-16 -16 0 -20 -7 -20 -35 0 -33 1 -34 30 -28 23 4 30 2 30 -9 0 -14 -38 -28
-75 -28 -10 0 -37 135 -40 195 0 9 37 19 83 24 8 0 12 -7 10 -16z m-642 -65
c-13 -129 -18 -148 -33 -148 -13 0 -14 13 -9 88 9 106 13 122 33 122 13 0 15
-10 9 -62z m534 47 c0 -8 -7 -15 -16 -15 -15 0 -16 -11 -10 -90 6 -75 5 -90
-7 -90 -16 0 -27 29 -27 76 0 57 -11 92 -31 97 -24 6 -25 24 -1 30 42 11 92 7
92 -8z m-170 -47 l21 -53 -4 53 c-4 45 -2 52 14 52 16 0 19 -8 19 -44 0 -23 3
-71 6 -105 6 -56 5 -61 -13 -61 -16 0 -24 13 -38 60 -10 34 -21 63 -25 65 -3
2 -4 -25 -2 -61 4 -52 1 -64 -10 -64 -17 0 -28 64 -28 158 0 45 3 52 19 52 14
0 25 -15 41 -52z m-88 -55 c4 -98 -1 -121 -21 -109 -7 5 -11 46 -11 107 0 78
3 99 14 99 11 0 15 -22 18 -97z m-134 25 c17 -17 15 -43 -4 -59 -31 -26 -70
25 -44 56 15 18 32 19 48 3z"/>
<path d="M3653 5903 c-18 -4 -21 -9 -17 -36 3 -18 13 -95 23 -172 l17 -140 45
3 c24 2 55 9 69 16 24 11 25 15 24 101 -1 103 -19 198 -40 220 -15 14 -70 18
-121 8z"/>
<path d="M5037 5698 c-27 -21 -140 -264 -132 -287 8 -26 88 -65 115 -56 14 5
42 49 88 141 73 146 73 153 16 185 -45 26 -69 30 -87 17z"/>
<path d="M5543 5335 l-43 -54 38 -31 c54 -45 78 -48 113 -14 43 41 39 73 -15
118 -24 20 -46 36 -48 35 -2 0 -22 -24 -45 -54z"/>
<path d="M2428 5352 c-33 -31 -40 -43 -35 -63 9 -35 164 -222 194 -234 29 -11
66 6 95 46 18 24 19 29 5 55 -18 34 -151 204 -174 222 -26 19 -41 15 -85 -26z"/>
<path d="M5973 4913 c-120 -83 -204 -151 -209 -170 -11 -42 56 -123 91 -109
26 10 225 158 239 178 11 15 12 27 4 49 -9 27 -60 79 -77 79 -5 0 -26 -12 -48
-27z"/>
<path d="M1320 4435 c13 -14 26 -25 28 -25 3 0 -5 11 -18 25 -13 14 -26 25
-28 25 -3 0 5 -11 18 -25z"/>
<path d="M2438 2885 c13 -26 72 -82 72 -69 0 6 -19 28 -41 49 -23 22 -37 31
-31 20z"/>
<path d="M2991 4537 c-14 -18 -41 -83 -41 -101 0 -24 39 -54 63 -49 18 4 19 3
7 -6 -13 -9 -12 -11 6 -11 13 0 26 12 37 35 9 19 14 35 11 35 -3 0 -22 -11
-42 -25 l-37 -25 -3 29 c-2 16 1 52 6 80 10 56 10 57 -7 38z"/>
<path d="M2628 4310 c-9 -14 -25 -43 -37 -65 -18 -34 -19 -40 -6 -48 10 -5 21
-2 32 9 11 11 18 13 21 5 2 -6 10 -11 18 -11 9 0 12 5 9 10 -3 6 -1 10 4 10 6
0 11 -4 11 -9 0 -5 14 -12 31 -16 19 -4 33 -15 36 -26 6 -21 18 -25 29 -8 3 6
0 15 -7 20 -10 6 -8 9 9 9 19 0 22 -4 17 -22 -5 -20 -5 -21 5 -5 6 9 15 15 21
12 5 -4 9 -1 9 4 0 6 -7 11 -16 11 -8 0 -13 4 -10 9 3 5 -14 6 -37 4 -57 -7
-102 29 -114 90 l-9 42 -16 -25z"/>
<path d="M2862 4253 c-43 -45 -39 -50 6 -9 20 18 49 58 40 55 -2 0 -23 -21
-46 -46z"/>
<path d="M2780 4105 c-13 -16 -6 -35 13 -34 9 0 9 2 0 6 -7 2 -13 9 -13 14 0
6 4 8 8 5 5 -3 9 1 9 9 0 19 -2 19 -17 0z"/>
<path d="M2810 4080 c0 -5 5 -10 11 -10 5 0 7 5 4 10 -3 6 -8 10 -11 10 -2 0
-4 -4 -4 -10z"/>
<path d="M5332 4215 c29 -34 64 -77 78 -94 22 -28 35 -33 114 -47 48 -8 105
-14 125 -12 l36 3 -69 48 c-99 69 -159 101 -254 136 l-82 30 52 -64z"/>
<path d="M5630 4160 c19 -12 59 -41 88 -63 l54 -41 91 12 c120 16 188 32 182
42 -11 18 -167 48 -280 54 -66 3 -131 8 -145 12 -20 5 -19 2 10 -16z"/>
<path d="M6035 4059 c-33 -10 -96 -24 -140 -30 -44 -7 -82 -14 -84 -15 -1 -1
9 -18 23 -36 14 -19 32 -51 41 -71 l15 -37 118 42 c125 43 172 64 172 76 0 21
-63 93 -80 91 -3 -1 -32 -9 -65 -20z"/>
<path d="M5470 4026 c0 -4 13 -32 29 -64 15 -31 36 -78 46 -104 14 -38 22 -48
41 -48 26 0 235 39 246 46 9 6 -25 76 -58 120 -24 30 -26 31 -132 38 -59 3
-122 9 -139 12 -18 4 -33 3 -33 0z"/>
<path d="M6115 3908 c-38 -16 -101 -40 -139 -53 l-69 -23 2 -79 c1 -43 4 -79
5 -80 5 -5 230 99 248 115 18 15 32 81 26 123 l-3 26 -70 -29z"/>
<path d="M5804 3805 c-22 -6 -82 -20 -133 -30 l-93 -18 6 -36 c4 -20 9 -84 13
-143 3 -60 8 -108 10 -108 2 0 26 18 53 39 28 22 84 61 125 86 l75 47 0 83 c0
46 -3 86 -7 88 -5 3 -26 -1 -49 -8z"/>
<path d="M6010 3661 l-114 -56 -23 -70 c-13 -38 -32 -91 -43 -117 -11 -26 -20
-50 -20 -53 0 -4 25 16 56 44 30 28 84 72 119 98 52 38 70 60 105 125 23 44
40 81 39 82 -2 2 -56 -22 -119 -53z"/>
<path d="M5707 3488 c-115 -82 -117 -84 -122 -128 -3 -25 -16 -108 -29 -185
-13 -77 -23 -141 -22 -142 2 -2 147 179 183 229 23 32 119 295 111 304 -3 2
-57 -33 -121 -78z"/>
<path d="M5919 3397 c-114 -95 -145 -136 -173 -228 -14 -46 -24 -84 -22 -86 2
-2 20 25 39 60 47 83 117 178 185 250 30 31 51 57 45 57 -5 0 -38 -24 -74 -53z"/>
<path d="M3978 3103 c7 -3 16 -2 19 1 4 3 -2 6 -13 5 -11 0 -14 -3 -6 -6z"/>
<path d="M4103 3103 c9 -2 23 -2 30 0 6 3 -1 5 -18 5 -16 0 -22 -2 -12 -5z"/>
<path d="M4214 2288 c3 -13 6 -26 6 -30 0 -5 38 -8 85 -8 l85 0 0 30 0 30 -91
0 c-90 0 -91 0 -85 -22z"/>
<path d="M3998 2293 c7 -3 16 -2 19 1 4 3 -2 6 -13 5 -11 0 -14 -3 -6 -6z"/>
<path d="M3928 2257 c-25 -19 -48 -47 -55 -67 -15 -43 -16 -110 -3 -130 9 -13
10 -13 10 0 0 8 3 26 6 40 4 20 3 22 -5 10 -9 -12 -11 -11 -11 7 0 15 5 21 14
17 8 -3 17 3 20 14 9 28 18 30 138 24 l107 -5 15 -45 c9 -25 16 -57 17 -71 l0
-26 11 25 c11 28 3 133 -12 158 -8 14 -9 11 -6 -11 4 -25 3 -27 -17 -20 -12 4
-39 7 -60 6 -32 -1 -38 1 -33 15 5 13 3 13 -9 -2 -15 -20 -15 -20 -16 0 0 18
-1 18 -9 -1 -6 -13 -9 -15 -9 -5 -1 13 -2 13 -11 0 -8 -12 -10 -11 -10 8 0 12
-4 23 -10 23 -5 1 -14 2 -19 3 -5 0 -12 4 -16 8 -4 4 -14 4 -23 1 -10 -2 -1 9
18 26 47 41 33 39 -22 -2z"/>
<path d="M4130 2270 c-13 -8 -12 -10 3 -10 9 0 17 5 17 10 0 12 -1 12 -20 0z"/>
<path d="M3956 1805 c7 -18 55 -45 79 -45 21 0 62 27 69 46 5 13 3 13 -16 -1
-28 -19 -71 -19 -108 0 -27 14 -29 14 -24 0z"/>
<path d="M3778 1722 l-118 -55 1 -91 c0 -50 3 -85 6 -78 2 6 11 12 19 12 13 0
13 3 0 22 -17 24 -21 84 -8 105 4 7 48 31 96 54 l89 41 23 -30 c13 -16 49 -47
80 -67 56 -38 56 -38 91 -21 19 9 58 39 87 66 l53 50 74 -30 c116 -48 122 -53
117 -108 -3 -26 -8 -56 -12 -67 -6 -15 -5 -16 2 -6 8 11 11 10 15 -5 3 -10 4
21 4 70 l-2 89 -117 52 c-80 36 -118 48 -118 39 0 -19 -55 -79 -96 -104 l-34
-22 -32 20 c-41 25 -84 70 -95 98 -8 20 -12 18 -125 -34z m262 -96 c0 -3 -4
-8 -10 -11 -5 -3 -10 -1 -10 4 0 6 5 11 10 11 6 0 10 -2 10 -4z"/>
<path d="M4177 1572 c-35 -38 -9 -102 40 -102 49 0 72 76 31 104 -29 21 -51
20 -71 -2z"/>
<path d="M4305 1459 l-80 -28 60 -3 c129 -4 120 -6 123 30 4 38 3 38 -103 1z"/>
<path d="M3712 1378 c-29 -29 1 -79 35 -59 16 9 16 10 -4 11 -16 0 -23 6 -23
20 0 14 7 20 21 20 11 0 17 5 14 10 -8 14 -28 13 -43 -2z"/>
<path d="M3770 1371 c-13 -26 4 -64 27 -59 25 5 40 35 27 56 -16 25 -41 26
-54 3z m40 -21 c0 -11 -7 -20 -15 -20 -8 0 -15 9 -15 20 0 11 7 20 15 20 8 0
15 -9 15 -20z"/>
<path d="M3848 1384 c-5 -4 -8 -20 -8 -36 0 -31 24 -48 43 -29 8 8 7 11 -5 11
-11 0 -18 10 -20 31 -2 17 -6 27 -10 23z"/>
<path d="M3900 1371 c-12 -23 -5 -47 17 -55 33 -13 57 36 31 62 -18 18 -36 15
-48 -7z m43 -15 c7 -16 -1 -26 -20 -26 -7 0 -13 9 -13 20 0 23 25 27 33 6z"/>
<path d="M3977 1384 c-10 -10 -9 -64 2 -64 12 0 21 41 12 57 -4 7 -10 10 -14
7z"/>
<path d="M4016 1365 c-20 -30 -21 -41 -2 -26 11 10 15 8 19 -6 3 -10 5 -1 6
20 1 44 -1 45 -23 12z"/>
<path d="M4060 1350 c0 -37 2 -41 23 -38 18 2 22 9 22 38 0 29 -4 36 -22 38
-21 3 -23 -1 -23 -38z m37 -16 c-3 -3 -12 -4 -19 -1 -8 3 -5 6 6 6 11 1 17 -2
13 -5z"/>
<path d="M4133 1350 c0 -25 2 -35 4 -22 2 12 2 32 0 45 -2 12 -4 2 -4 -23z"/>
<path d="M4166 1356 c-20 -47 -20 -52 -1 -36 8 7 22 10 30 6 19 -7 19 11 1 44
l-14 24 -16 -38z"/>
<path d="M4231 1350 c1 -35 3 -40 8 -20 l7 25 13 -24 c17 -31 34 -14 28 30 -4
30 -5 32 -12 12 l-7 -22 -19 22 -18 22 0 -45z"/>
<path d="M4311 1359 c-13 -39 -14 -59 -1 -39 8 12 13 13 30 2 13 -8 20 -8 20
-2 0 12 -28 70 -34 70 -2 0 -9 -14 -15 -31z m24 -9 c3 -5 1 -10 -4 -10 -6 0
-11 5 -11 10 0 6 2 10 4 10 3 0 8 -4 11 -10z"/>
<path d="M3480 1742 c0 -5 7 -9 15 -9 8 0 12 4 9 9 -3 4 -9 8 -15 8 -5 0 -9
-4 -9 -8z"/>
<path d="M3377 1295 c8 -38 8 -39 30 -26 15 9 15 10 2 11 -9 0 -21 10 -27 23
-10 20 -11 19 -5 -8z"/>
<path d="M3445 1294 c-20 -15 -12 -17 19 -5 11 4 15 10 10 13 -5 4 -18 0 -29
-8z"/>
<path d="M4563 2153 c-7 -3 -13 -18 -13 -34 0 -25 4 -29 28 -30 l27 -1 -27
-12 -27 -11 40 -23 c55 -32 73 -63 67 -117 -9 -78 22 -49 42 39 13 60 -2 122
-37 152 -14 12 -23 26 -20 31 5 9 -58 13 -80 6z m117 -77 c0 -3 -4 -8 -10 -11
-5 -3 -10 -1 -10 4 0 6 5 11 10 11 6 0 10 -2 10 -4z m-47 -26 c11 -8 25 -21
33 -28 16 -16 19 -1 3 15 -7 7 -6 12 6 17 9 3 13 2 10 -3 -3 -5 -2 -12 3 -15
4 -2 6 -21 4 -42 -3 -24 -7 -32 -13 -23 -4 7 -5 17 -3 21 3 4 -2 8 -10 8 -9 0
-16 4 -16 10 0 5 -17 21 -37 35 -25 17 -31 25 -18 23 11 -2 28 -10 38 -18z"/>
<path d="M4749 2084 c-5 -15 -8 -28 -7 -29 2 -1 36 -11 77 -23 76 -23 87 -21
93 12 2 15 -10 23 -66 42 -39 13 -74 24 -78 24 -5 0 -13 -12 -19 -26z"/>
<path d="M4550 1440 c0 -16 7 -33 16 -38 14 -8 14 -10 -1 -25 -9 -10 -12 -17
-6 -17 17 0 41 31 41 54 0 21 -27 56 -43 56 -4 0 -7 -13 -7 -30z"/>
<path d="M4697 1382 c-21 -23 -21 -32 -3 -32 8 0 18 9 21 21 9 28 2 33 -18 11z"/>
<path d="M4623 1322 c-40 -2 -73 -6 -73 -10 0 -4 24 -16 53 -26 28 -10 57 -21
63 -23 7 -2 17 10 23 28 6 18 10 33 9 33 -2 1 -36 0 -75 -2z"/>
<path d="M6327 1996 c18 -15 37 -25 43 -21 17 10 11 23 -14 29 -13 3 -32 9
-43 13 -10 4 -3 -6 14 -21z"/>
<path d="M1732 1965 c-18 -8 -31 -19 -27 -25 10 -17 30 -11 55 15 27 28 20 31
-28 10z"/>
<path d="M6060 1692 c0 -5 11 -19 25 -32 22 -20 25 -21 31 -6 3 9 1 23 -6 31
-13 16 -50 21 -50 7z"/>
<path d="M5906 1415 c20 -26 30 -33 38 -25 8 8 3 18 -19 36 -43 34 -50 30 -19
-11z"/>
<path d="M2190 1382 c-25 -22 -30 -31 -20 -37 13 -8 29 7 51 48 13 23 9 22
-31 -11z"/>
<path d="M2562 1080 c-15 -19 -19 -31 -11 -35 13 -8 21 0 37 38 15 35 3 34
-26 -3z"/>
<path d="M5366 1071 c-3 -5 11 -36 31 -70 28 -48 39 -59 49 -50 11 9 11 17 -3
43 -36 71 -64 99 -77 77z"/>
<path d="M2790 989 c-13 -24 -8 -34 15 -26 16 7 21 47 5 47 -5 0 -14 -9 -20
-21z"/>
<path d="M2746 912 c-13 -25 -13 -31 -1 -35 13 -5 23 3 38 29 4 7 0 17 -7 24
-12 9 -18 6 -30 -18z"/>
<path d="M5206 982 c-7 -11 54 -132 66 -132 21 0 18 33 -9 81 -28 53 -46 68
-57 51z"/>
<path d="M5030 897 c0 -7 6 -21 13 -32 17 -22 32 -5 22 25 -7 22 -35 28 -35 7z"/>
<path d="M5067 824 c-9 -10 15 -54 30 -54 14 0 17 18 7 44 -6 16 -25 21 -37
10z"/>
<path d="M3230 794 c-13 -33 -13 -34 5 -34 16 0 36 39 28 53 -9 15 -24 6 -33
-19z"/>
<path d="M4771 755 c1 -40 12 -66 25 -57 8 5 5 19 -7 47 -18 39 -18 39 -18 10z"/>
<path d="M3338 720 c-16 -39 -16 -40 3 -40 16 0 19 7 19 40 0 22 -1 40 -2 40
-2 0 -11 -18 -20 -40z"/>
<path d="M4510 726 c0 -22 11 -46 21 -46 5 0 9 14 9 30 0 20 -5 30 -15 30 -8
0 -15 -6 -15 -14z"/>
</g>
</svg>
